<svg xmlns="http://www.w3.org/2000/svg" viewBox="0 0 97.72 106.05"><defs><style>.cls-1{fill:#fff;}</style></defs><g id="Calque_2" data-name="Calque 2"><g id="Calque_1-2" data-name="Calque 1"><rect class="cls-1" x="35.45" y="100.02" width="1.25" height="5.95"/><polygon class="cls-1" points="42.39 103.32 42.14 103.94 42.13 103.94 41.87 103.32 39.97 100.02 38.94 100.02 38.94 105.98 40.19 105.98 40.19 102.56 40.2 102.56 40.47 103.19 42.12 106.05 42.15 106.05 43.8 103.19 44.07 102.56 44.08 102.56 44.08 105.98 45.33 105.98 45.33 100.02 44.3 100.02 42.39 103.32"/><polygon class="cls-1" points="50.99 103.32 50.74 103.94 50.73 103.94 50.47 103.32 48.57 100.02 47.54 100.02 47.54 105.98 48.79 105.98 48.79 102.56 48.8 102.56 49.07 103.19 50.72 106.05 50.75 106.05 52.4 103.19 52.66 102.56 52.68 102.56 52.68 105.98 53.93 105.98 53.93 100.02 52.9 100.02 50.99 103.32"/><path class="cls-1" d="M58.94,100A2.86,2.86,0,0,0,55.88,103,3.06,3.06,0,0,0,62,103,2.85,2.85,0,0,0,58.94,100Zm0,5a1.67,1.67,0,0,1-1.79-1.9c0-1.14.53-2,1.79-2s1.79.85,1.79,2A1.66,1.66,0,0,1,58.94,104.93Z"/><rect class="cls-1" x="20.91" y="93.63" width="56.27" height="0.73"/><path class="cls-1" d="M10.31,76.31H6.41V87.82h3.9a5.76,5.76,0,1,0,0-11.51Zm0,10.66h-3V77.15h3a4.67,4.67,0,0,1,4.94,4.78A4.72,4.72,0,0,1,10.31,87Z"/><polygon class="cls-1" points="28.85 77.15 28.85 76.31 20.91 76.31 20.91 87.82 29.05 87.82 29.05 86.97 21.78 86.97 21.78 82.43 28.52 82.43 28.52 81.62 21.78 81.62 21.78 77.15 28.85 77.15"/><path class="cls-1" d="M44.69,87.82V76.31H43.6L39.24,83l-4.4-6.71H33.78V87.82h.89V77.59l4.44,6.74h.3l4.4-6.74V87.82Z"/><polygon class="cls-1" points="57.92 77.15 57.92 76.31 49.98 76.31 49.98 87.82 58.12 87.82 58.12 86.97 50.85 86.97 50.85 82.43 57.59 82.43 57.59 81.62 50.85 81.62 50.85 77.15 57.92 77.15"/><polygon class="cls-1" points="67.67 87.82 67.67 77.11 71.83 77.11 71.83 76.33 62.62 76.33 62.62 77.11 66.78 77.11 66.78 87.82 67.67 87.82"/><path class="cls-1" d="M86.79,81.47c-1.94-.36-3.52-.7-3.52-2.17,0-1.84,2.14-2.33,3.49-2.33a3.71,3.71,0,0,1,3.49,1.56L91,78.1a4.44,4.44,0,0,0-4.21-1.95c-1.89,0-4.42.75-4.37,3.19,0,2.12,2.15,2.54,4.25,3,1.9.36,3.8.74,3.79,2.46,0,2-2.26,2.44-3.67,2.44a4.54,4.54,0,0,1-3.93-2.09L82,85.5A5.18,5.18,0,0,0,86.76,88c1.92,0,4.54-.62,4.55-3.22S89,81.9,86.79,81.47Z"/><rect class="cls-1" x="76.29" y="76.31" width="0.89" height="11.51"/><path class="cls-1" d="M84.93,64.09V44.33L79.18,39.4V16.13H53.57V41.18L50,38.09V33.7l-6.45-5.53V0H25.08V16.13H12.79v48H0V66.3H15v-48H27.28V2.2h14V26.28L36.54,22.2,23.12,33.7v8.48a4.28,4.28,0,0,0-3.18,4.13,4.06,4.06,0,0,0,.13,1,6.44,6.44,0,0,0,3.05,11.28v7.69h2.2V58.63a6.44,6.44,0,0,0,3.05-11.28,4.07,4.07,0,0,0,.14-1,4.29,4.29,0,0,0-3.19-4.13V34.71L36.54,25.1l4.76,4.08V43.62l-8.12,7V66.32h2.2V51.6l5.92-5.08v19.8h2.21V44.63L48.86,40l4.71,4V66.32h2.2V46l6.57,5.63V66.32h2.2V50.58L57.1,44.21,69.25,33.8,77,40.42v25.9h2.2v-24l3.55,3V66.3h15V64.09ZM26.3,46.31a2.05,2.05,0,0,1-.24.94l-.46.9.86.53a4.25,4.25,0,1,1-4.48,0l.86-.53-.46-.9a2.05,2.05,0,0,1-.24-.94,2.08,2.08,0,1,1,4.16,0ZM43.51,31.07l4.25,3.64v3.38l-4.25,3.64Zm25.74-.18L55.77,42.44V18.33H77V37.51Z"/></g></g></svg>