<svg xmlns="http://www.w3.org/2000/svg" viewBox="0 0 225.59 66.32"><defs><style>.cls-1{fill:#1b3762;}</style></defs><g id="Calque_2" data-name="Calque 2"><g id="Calque_1-2" data-name="Calque 1"><path class="cls-1" d="M219.1,19.34c-2.79-.52-5.06-1-5.06-3.12,0-2.65,3.07-3.35,5-3.35s3.8.3,5,2.24l1-.61c-1.62-2.44-3.68-2.81-6-2.81-2.72,0-6.35,1.08-6.28,4.58,0,3,3.09,3.66,6.11,4.25,2.72.52,5.46,1.06,5.44,3.54,0,2.93-3.24,3.5-5.27,3.5s-4.63-1-5.64-3l-1.14.56c1.28,2.53,4.21,3.59,6.78,3.59,2.76,0,6.52-.9,6.54-4.63C225.59,20.52,222.28,20,219.1,19.34Z"/><rect class="cls-1" x="145.37" y="45.98" width="1.79" height="8.54"/><polygon class="cls-1" points="155.34 50.71 154.98 51.61 154.96 51.61 154.59 50.71 151.85 45.98 150.38 45.98 150.38 54.53 152.17 54.53 152.17 49.63 152.19 49.63 152.57 50.52 154.95 54.63 154.99 54.63 157.36 50.52 157.74 49.62 157.76 49.62 157.76 54.53 159.55 54.53 159.55 45.98 158.08 45.98 155.34 50.71"/><polygon class="cls-1" points="167.68 50.71 167.32 51.61 167.3 51.61 166.93 50.71 164.2 45.98 162.72 45.98 162.72 54.53 164.52 54.53 164.52 49.63 164.54 49.63 164.92 50.52 167.29 54.63 167.33 54.63 169.71 50.52 170.09 49.62 170.11 49.62 170.11 54.53 171.9 54.53 171.9 45.98 170.42 45.98 167.68 50.71"/><path class="cls-1" d="M179.1,45.87a4.11,4.11,0,0,0-4.4,4.43,4.4,4.4,0,0,0,8.8,0A4.1,4.1,0,0,0,179.1,45.87Zm0,7.15c-1.82,0-2.57-1.13-2.57-2.72s.75-2.83,2.57-2.83,2.57,1.23,2.57,2.83S180.93,53,179.1,53Z"/><rect class="cls-1" x="124.48" y="36.79" width="80.81" height="1.06"/><path class="cls-1" d="M109.25,11.92h-5.59V28.45h5.59A7.94,7.94,0,0,0,117.64,20,8,8,0,0,0,109.25,11.92Zm0,15.3h-4.32V13.13h4.32A6.73,6.73,0,0,1,116.36,20,6.78,6.78,0,0,1,109.25,27.22Z"/><polygon class="cls-1" points="135.89 13.13 135.89 11.92 124.48 11.92 124.48 28.45 136.17 28.45 136.17 27.22 125.73 27.22 125.73 20.71 135.42 20.71 135.42 19.55 125.73 19.55 125.73 13.13 135.89 13.13"/><path class="cls-1" d="M158.63,28.45V11.92h-1.56l-6.26,9.64-6.33-9.64H143V28.45h1.28V13.76l6.37,9.69h.43l6.33-9.69V28.45Z"/><polygon class="cls-1" points="177.63 13.13 177.63 11.92 166.23 11.92 166.23 28.45 177.92 28.45 177.92 27.22 167.48 27.22 167.48 20.71 177.16 20.71 177.16 19.55 167.48 19.55 167.48 13.13 177.63 13.13"/><polygon class="cls-1" points="191.64 28.45 191.64 13.08 197.61 13.08 197.61 11.95 184.39 11.95 184.39 13.08 190.36 13.08 190.36 28.45 191.64 28.45"/><rect class="cls-1" x="204.02" y="11.92" width="1.28" height="16.53"/><path class="cls-1" d="M84.93,64.09V44.33L79.18,39.4V16.13H53.57V41.18L50,38.09V33.7l-6.45-5.53V0H25.08V16.13H12.79v48H0V66.3H15v-48H27.28V2.2h14V26.28L36.54,22.2,23.12,33.7v8.48a4.28,4.28,0,0,0-3.18,4.13,4.06,4.06,0,0,0,.13,1,6.44,6.44,0,0,0,3.05,11.28v7.69h2.2V58.63a6.44,6.44,0,0,0,3.05-11.28,4.07,4.07,0,0,0,.14-1,4.29,4.29,0,0,0-3.19-4.13V34.71L36.54,25.1l4.76,4.08V43.62l-8.12,7V66.32h2.2V51.6l5.92-5.08v19.8h2.21V44.63L48.86,40l4.71,4V66.32h2.2V46l6.57,5.63V66.32h2.2V50.58L57.1,44.21,69.25,33.8,77,40.42v25.9h2.2v-24l3.55,3V66.3h15V64.09ZM26.3,46.31a2.05,2.05,0,0,1-.24.94l-.46.9.86.53a4.25,4.25,0,1,1-4.48,0l.86-.53-.46-.9a2.05,2.05,0,0,1-.24-.94,2.08,2.08,0,1,1,4.16,0ZM43.51,31.07l4.25,3.64v3.38l-4.25,3.64Zm25.74-.18L55.77,42.44V18.33H77V37.51Z"/></g></g></svg>