<svg xmlns="http://www.w3.org/2000/svg" viewBox="0 0 512 351.68"><defs><style>.cls-1{fill:#7c8ca3;}</style></defs><g id="Calque_2" data-name="Calque 2"><g id="Capa_1" data-name="Capa 1"><path class="cls-1" d="M504.5,336.68H496V280.05a7.5,7.5,0,0,0-7.5-7.5h-88.7V199.89a7.49,7.49,0,0,0-7.5-7.5H351.68V167.82a7.5,7.5,0,0,0-7.5-7.5H271.52V87.66a7.5,7.5,0,0,0-7.5-7.5h-9.25a39.66,39.66,0,0,0-31.35-31.34V7.5a7.5,7.5,0,0,0-15,0V48.82a39.66,39.66,0,0,0-31.35,31.34h-9.25a7.5,7.5,0,0,0-7.5,7.5v56.63H103.69a7.5,7.5,0,0,0-7.5,7.5v56.63H23.53a7.5,7.5,0,0,0-7.5,7.5V336.68H7.5a7.5,7.5,0,0,0,0,15h497a7.5,7.5,0,0,0,0-15ZM111.19,159.29h81.2v17.06h-81.2Zm33.1,177.39H127.22v-8.53a7.5,7.5,0,0,0-15,0v8.53H95.16v-8.53a7.5,7.5,0,0,0-15,0v8.53H63.1v-8.53a7.5,7.5,0,0,0-15,0v8.53H31V223.42H144.29Zm-33.1-128.26V191.35h81.2v17.07h-81.2Zm65.16,128.26H159.29V319.61h17.06Zm0-32.07H159.29V287.55h17.06Zm0-32.06H159.29V255.48h17.06Zm-17.06-32.07V223.42h33.1v17.06h-33.1Zm177.39-48.09H312.11a7.5,7.5,0,0,0,0,15h24.57v17.06H312.11a7.5,7.5,0,0,0,0,15h24.57v17.06H312.11a7.5,7.5,0,0,0,0,15h24.57v17.07H312.11a7.5,7.5,0,0,0,0,15h24.57v33.09H287.55v-8.53a7.5,7.5,0,0,0-15,0v8.53H255.48V320.13a7.5,7.5,0,0,0-15,0v16.55H223.42V320.13a7.5,7.5,0,0,0-15,0v16.55H191.36v-81.2h81.19v40.6a7.5,7.5,0,0,0,15,0V248a7.5,7.5,0,0,0-7.5-7.5h-8.53V215.92a7.5,7.5,0,1,0-15,0v24.56H207.39V151.79a7.5,7.5,0,0,0-7.5-7.5H175.32V95.16h8.53a7.5,7.5,0,0,0,7.5-7.5,24.57,24.57,0,0,1,49.13,0,7.5,7.5,0,0,0,7.5,7.5h8.53v88.7a7.5,7.5,0,0,0,15,0v-8.54h65.17Zm32.06,87.66v56.63H351.68V207.39h33.09v65.16h-8.53A7.5,7.5,0,0,0,368.74,280.05ZM481,336.68H455.89V312.11a7.5,7.5,0,0,0-15,0v24.57H423.82V312.11a7.5,7.5,0,0,0-15,0v24.57H383.74V287.55H481v49.13Z"/></g></g></svg>