<?xml version="1.0" encoding="utf-8"?>
<!-- Generator: Adobe Illustrator 25.0.0, SVG Export Plug-In . SVG Version: 6.00 Build 0)  -->
<svg version="1.1" id="Calque_1" xmlns="http://www.w3.org/2000/svg" xmlns:xlink="http://www.w3.org/1999/xlink" x="0px" y="0px"
	 viewBox="0 0 480 480" style="enable-background:new 0 0 480 480;" xml:space="preserve">
<style type="text/css">
	.st0{fill:#1C3661;}
</style>
<path class="st0" d="M104,160c0,23.4,16.9,43.4,40,47.3v34.2c-9.6,3.3-16,12.4-16,22.5s6.4,19.2,16,22.5V472c0,4.4,3.6,8,8,8h176
	c4.4,0,8-3.6,8-8V286.5c9.6-3.3,16-12.4,16-22.5s-6.4-19.2-16-22.5v-34.2c23.6-4.1,40.6-25,39.8-48.9c-0.8-23.9-19.1-43.6-43-46.1
	l8.1-16.2H352c4.4,0,8-3.6,8-8V64h8c4.4,0,8-3.6,8-8V8c0-4.4-3.6-8-8-8H112c-4.4,0-8,3.6-8,8v48c0,4.4,3.6,8,8,8h8v24
	c0,4.4,3.6,8,8,8h11.1l8.1,16.2C122.7,114.7,104,135.4,104,160z M187.7,192h104.6c7.2,8.1,17,13.5,27.7,15.3V240h-32v-16h-16v16h-24
	v-32h-16v32h-24v-16h-16v16h-32v-32.7C170.7,205.5,180.4,200.1,187.7,192z M320,464H160V288h32v144h16V288h24v160h16V288h24v128h16
	V288h32V464z M328,272H152c-4.4,0-8-3.6-8-8s3.6-8,8-8h176c4.4,0,8,3.6,8,8S332.4,272,328,272z M328,128c17.7,0,32,14.3,32,32
	s-14.3,32-32,32s-32-14.3-32-32c0-8.8,7.2-16,16-16s16,7.2,16,16h16c0-17.7-14.3-32-32-32s-32,14.3-32,32c0,5.5,1,10.9,2.8,16h-85.6
	c1.8-5.1,2.8-10.5,2.8-16c0-17.7-14.3-32-32-32s-32,14.3-32,32h16c0-8.8,7.2-16,16-16s16,7.2,16,16c0,17.7-14.3,32-32,32
	s-32-14.3-32-32s14.3-32,32-32H328z M120,16h240v32H120V16z M344,64v16H136V64H344z M323.1,96l-8,16H164.9l-8-16H323.1z"/>
<path class="st0" d="M272,432h16v16h-16V432z"/>
<path class="st0" d="M216,144h16v16h-16V144z"/>
<path class="st0" d="M248,144h16v16h-16V144z"/>
</svg>
