<svg xmlns="http://www.w3.org/2000/svg" viewBox="0 0 307.2 512"><defs><style>.cls-1{fill:#7c8ca3;}</style></defs><g id="Calque_2" data-name="Calque 2"><g id="Capa_1" data-name="Capa 1"><path class="cls-1" d="M153.6,0C68.91,0,0,68.91,0,153.6V503.47A8.52,8.52,0,0,0,8.53,512H298.67a8.52,8.52,0,0,0,8.53-8.53V153.6C307.2,68.91,238.29,0,153.6,0ZM290.13,494.93H17.07V153.6c0-75.28,61.24-136.53,136.53-136.53S290.13,78.32,290.13,153.6Z"/><path class="cls-1" d="M264.53,145.07H42.67a8.53,8.53,0,0,0-8.54,8.53V503.47A8.53,8.53,0,0,0,42.67,512H264.53a8.53,8.53,0,0,0,8.54-8.53V153.6A8.53,8.53,0,0,0,264.53,145.07ZM256,494.93H51.2V162.13H256v332.8Z"/><path class="cls-1" d="M106.67,179.2a38.45,38.45,0,0,0-38.4,38.4V358.4a8.52,8.52,0,0,0,8.53,8.53h59.73a8.53,8.53,0,0,0,8.54-8.53V217.6A38.45,38.45,0,0,0,106.67,179.2ZM128,349.87H85.33V217.6a21.34,21.34,0,0,1,42.67,0V349.87Z"/><path class="cls-1" d="M200.53,179.2a38.45,38.45,0,0,0-38.4,38.4V358.4a8.53,8.53,0,0,0,8.54,8.53H230.4a8.52,8.52,0,0,0,8.53-8.53V217.6A38.44,38.44,0,0,0,200.53,179.2Zm21.34,170.67H179.2V217.6a21.34,21.34,0,0,1,42.67,0V349.87Z"/><path class="cls-1" d="M136.53,384H76.8a8.52,8.52,0,0,0-8.53,8.53v76.8a8.53,8.53,0,0,0,8.53,8.54h59.73a8.54,8.54,0,0,0,8.54-8.54v-76.8A8.53,8.53,0,0,0,136.53,384ZM128,460.8H85.33V401.07H128Z"/><path class="cls-1" d="M230.4,384H170.67a8.53,8.53,0,0,0-8.54,8.53v76.8a8.54,8.54,0,0,0,8.54,8.54H230.4a8.53,8.53,0,0,0,8.53-8.54v-76.8A8.52,8.52,0,0,0,230.4,384Zm-8.53,76.8H179.2V401.07h42.67Z"/><path class="cls-1" d="M153.6,34.13A119.6,119.6,0,0,0,34.13,153.6a8.53,8.53,0,0,0,8.54,8.53H264.53a8.53,8.53,0,0,0,8.54-8.53A119.6,119.6,0,0,0,153.6,34.13Zm-102,110.94a102.4,102.4,0,0,1,204.09,0Z"/><path class="cls-1" d="M153.6,34.13a8.53,8.53,0,0,0-8.53,8.54V153.6a8.53,8.53,0,0,0,17.06,0V42.67A8.53,8.53,0,0,0,153.6,34.13Z"/><path class="cls-1" d="M236.43,70.77a8.51,8.51,0,0,0-12.06,0l-76.8,76.8a8.53,8.53,0,1,0,12.06,12.06l76.8-76.8A8.51,8.51,0,0,0,236.43,70.77Z"/><path class="cls-1" d="M159.63,147.57l-76.8-76.8A8.53,8.53,0,0,0,70.77,82.83l76.8,76.8a8.53,8.53,0,0,0,12.06-12.06Z"/><path class="cls-1" d="M170.67,426.67H136.53a8.53,8.53,0,1,0,0,17.06h34.14a8.53,8.53,0,0,0,0-17.06Z"/></g></g></svg>