<?xml version="1.0" encoding="utf-8"?>
<!-- Generator: Adobe Illustrator 25.0.0, SVG Export Plug-In . SVG Version: 6.00 Build 0)  -->
<svg version="1.1" id="Layer_1" xmlns="http://www.w3.org/2000/svg" xmlns:xlink="http://www.w3.org/1999/xlink" x="0px" y="0px"
	 viewBox="0 0 512 512" style="enable-background:new 0 0 512 512;" xml:space="preserve">
<style type="text/css">
	.st0{fill:#1B3762;}
</style>
<path class="st0" d="M452.8,425.1h-54.5V79.9c0-3.6-2.7-6.6-6.2-7l-184-20.8c-3.8-0.4-7.3,2.3-7.7,6.2c0,0.3,0,0.5,0,0.8v13.8h-79.7
	c-3.9,0-7,3.1-7,7v345.1H59.2c-3.9,0-7,3.1-7,7s3.1,7,7,7l0,0h141.2v13.8c0,3.9,3.1,7,7,7c0.3,0,0.5,0,0.8,0l183.6-20.7h61.1
	c3.9,0,7-3.1,7-7S456.7,425.1,452.8,425.1L452.8,425.1z M127.7,86.9h72.7v18h-47.7c-3.9,0-7,3.1-7,7v313.1h-18L127.7,86.9z
	 M159.7,425.1V118.9h40.7v306.1H159.7z M214.3,67l170,19.2v339.6l-170,19.2V67z"/>
<path class="st0" d="M244.5,235.2c-11.5,0-20.8,9.3-20.8,20.8c0,11.5,9.3,20.8,20.8,20.8c11.5,0,20.8-9.3,20.8-20.8l0,0
	C265.3,244.5,256,235.2,244.5,235.2z M244.5,262.8c-3.8,0-6.8-3.1-6.8-6.8c0-3.8,3.1-6.8,6.8-6.8s6.8,3.1,6.8,6.8
	C251.3,259.8,248.3,262.8,244.5,262.8z"/>
</svg>
