<?xml version="1.0" encoding="utf-8"?>
<!-- Generator: Adobe Illustrator 25.0.0, SVG Export Plug-In . SVG Version: 6.00 Build 0)  -->
<svg version="1.1" id="Layer_1" xmlns="http://www.w3.org/2000/svg" xmlns:xlink="http://www.w3.org/1999/xlink" x="0px" y="0px"
	 viewBox="0 0 512 512" style="enable-background:new 0 0 512 512;" xml:space="preserve">
<style type="text/css">
	.st0{fill:#1C3661;}
</style>
<path class="st0" d="M448.6,261.4c-0.8,0-1.6,0-2.4-0.1c-6.9-0.8-12.4-6.4-13.1-13.4l0-0.2c-0.7-9.7-8.7-17.2-18.4-17.2H114.2
	c-9.7,0.1-17.7,7.6-18.3,17.2l0,0.2c-0.7,7-6.1,12.5-13,13.4l-0.2,0c-9.5,0.8-16.7,8.8-16.8,18.3v98.9c0,9.5,7.3,17.5,16.8,18.3
	l0.2,0c6.9,0.8,12.3,6.2,13,13.1c0,0.3,0.1,0.7,0.1,1c0.3,9.9,8.4,17.8,18.4,17.9h298.6c10.6,0,19.4-8.1,20.3-18.7l0-0.2
	c0.8-6.9,6.2-12.3,13-13.1c0.5-0.1,1.1-0.1,1.6-0.1c11.1,0,20.2-8.9,20.4-20v-97c0-5-2-9.7-5.6-13.2
	C458.8,263,453.7,261.2,448.6,261.4L448.6,261.4z M456.2,376.7c-0.1,4.5-3.8,8.1-8.3,8.1c0,0-0.1,0-0.1,0c-1,0-1.9,0.1-2.9,0.2
	c-12.5,1.4-22.3,11.3-23.7,23.8l0,0.3c-0.3,4.4-3.9,7.7-8.3,7.8H114.3c-3.5,0-6.3-2.9-6.4-6.3c0-0.6-0.1-1.2-0.1-1.8
	c-1.4-12.5-11.2-22.3-23.6-23.7l-0.4,0c-3.3-0.3-5.9-3-5.9-6.4v-98.9c0-3.3,2.6-6.1,5.9-6.4l0.3,0c12.7-1.4,22.6-11.6,23.7-24.3
	l0-0.3c0.2-3.4,3-6.1,6.4-6.1h300.5c3.4,0,6.2,2.7,6.4,6.1l0,0.4c1.1,12.7,11,22.9,23.7,24.3c1.4,0.2,2.9,0.2,4.3,0.1
	c1.9-0.1,3.7,0.6,5.1,1.8c1.2,1.2,1.9,2.8,1.9,4.5L456.2,376.7z"/>
<path class="st0" d="M313.3,295.6c4,1.5,8.4-0.4,9.9-4.4c0.3-0.8,0.5-1.7,0.5-2.6l0.5-15.6c0.1-3-1.6-5.7-4.3-7
	c-34.4-16.4-75.6-2.1-92.4,32h-3.3c-8,0-14.5,6.5-14.5,14.5c0,6.6,4.4,12.4,10.8,14c0,0.6,0,1.3,0,1.9c0,0.7,0,1.5,0,2.2
	c-7.8,2-12.4,10-10.3,17.7c1.7,6.4,7.4,10.8,14,10.8h3.4C239.3,383,263.5,398,290,398c7.7,0,19.1-1,29.5-5.7
	c2.9-1.3,4.7-4.3,4.5-7.4l-0.4-15.9c0-0.1,0-0.3,0-0.4c-0.2-2.3-1.4-4.4-3.4-5.7c-2-1.3-4.4-1.7-6.7-1c-17.6,5.5-32.3,4.5-43.3-2.8
	h18.1c8,0,14.5-6.5,14.5-14.5s-6.5-14.5-14.5-14.5h-35c0-0.2,0-0.5,0-0.7c0-0.8,0-1.6,0.1-2.4h34.9c8,0.1,14.6-6.4,14.6-14.4
	c0.1-8-6.4-14.6-14.4-14.6c-0.1,0-0.2,0-0.2,0H273C281.8,292.5,295.3,288.5,313.3,295.6L313.3,295.6z M251.8,306.6
	c1,2.1,3.1,3.4,5.4,3.4h31.1c1.4,0,2.5,1.1,2.6,2.5c0,1.4-1.1,2.5-2.5,2.6c0,0-0.1,0-0.1,0h-39.9c-2.7,0-5.1,1.9-5.8,4.5
	c-0.9,3.2-1.3,6.5-1.3,9.9c0,2.7,0.3,5.3,0.8,7.9c0.6,2.8,3,4.8,5.9,4.8h40.3c1.4,0,2.5,1.1,2.5,2.5s-1.1,2.5-2.5,2.5h-32.7
	c-3.3,0-6,2.7-6,6c0,1.3,0.4,2.5,1.1,3.5c17.3,23.9,43.8,22.5,61,18.3l0.2,7.5c-7.1,2.4-14.5,3.6-22,3.5c-23.1,0-44-13.8-53-35.1
	c-0.9-2.2-3.1-3.7-5.5-3.7h-7.2c-1.4,0-2.5-1.1-2.5-2.5s1.1-2.5,2.5-2.5h2.7c3.3,0,6-2.7,6-6c0-0.2,0-0.5,0-0.7
	c-0.5-4.6-0.5-9.2,0-13.7c0.4-3.3-2-6.3-5.3-6.7c-0.2,0-0.5,0-0.7,0h-2.7c-1.4,0-2.5-1.2-2.5-2.6c0-1.3,1.1-2.4,2.5-2.5h7.2
	c2.4,0,4.6-1.4,5.5-3.7c12.4-29.2,46-42.9,75.2-30.7l-0.2,6.8c-26.8-7.9-48.1,3.6-59.4,17.8C251.1,302,250.8,304.5,251.8,306.6z"/>
<path class="st0" d="M125.9,256.2h-5c-3.3,0-6,2.7-6,6s2.7,6,6,6h5c3.3,0,6-2.7,6-6S129.2,256.2,125.9,256.2z"/>
<path class="st0" d="M217.6,262.2c0-3.3-2.7-6-6-6h-63.5c-3.3,0-6,2.7-6,6s2.7,6,6,6h63.5C214.9,268.2,217.6,265.5,217.6,262.2z"/>
<path class="st0" d="M23.1,302.2l18,4.4v132.1c0,9.8,7.9,17.7,17.7,17.7h416.4c9.8,0,17.7-7.9,17.7-17.7c0,0,0,0,0,0V220.6
	c0-1.9-0.3-3.7-0.9-5.5l9.5-38.7c2.3-9.2-3.4-18.5-12.6-20.8c0,0,0,0,0,0L83.7,56.1c-9.2-2.3-18.5,3.4-20.8,12.6L10.5,281.4
	C8.2,290.7,13.9,300,23.1,302.2C23.1,302.2,23.1,302.2,23.1,302.2L23.1,302.2z M480.9,438.7c0,3.1-2.5,5.7-5.7,5.7c0,0,0,0,0,0H58.8
	c-3.1,0-5.7-2.5-5.7-5.7c0,0,0,0,0,0V220.6c0-3.1,2.5-5.7,5.7-5.7l0,0h18.2c3.3,0,6-2.7,6-6s-2.7-6-6-6h-9.4l16.6-67.7
	c0.8-3.2,4-5.3,7.3-4.8l0.3,0c12.7,1.7,24.7-5.8,28.8-17.9l0.1-0.3c1-3.3,4.3-5.2,7.7-4.4l291.8,71.6c3.3,0.8,5.4,4.1,4.8,7.5
	l-0.1,0.3c-0.9,5.3-0.2,10.7,2,15.6H320.8c0-0.1,0.1-0.2,0.1-0.3l4.2-15.1c0.8-2.9-0.2-5.9-2.5-7.8c-29.5-24.1-72.9-20.1-97.4,9.1
	l-2.1-0.5c-8.4-2.1-16.9,3.1-19,11.5l-0.8,3.2h-74.4c-3.3,0-6,2.7-6,6s2.7,6,6,6h346.1c3.1,0,5.7,2.5,5.7,5.7L480.9,438.7z
	 M249,196.9c-2.4,1.8-4.6,3.8-6.6,6h-26.6l0.1-0.3c0.5-2,2.5-3.2,4.5-2.7l5.9,1.4c2.3,0.6,4.8-0.3,6.2-2.2
	c19-25.4,54.9-30.7,80.4-11.9l-1.8,6.6C286.8,179.7,263.4,185.8,249,196.9L249,196.9z M302.7,202.9h-41.1
	C269.9,198.4,284.9,193.5,302.7,202.9z M22.2,284.3L74.5,71.6c0.7-2.8,3.5-4.5,6.3-3.8L486,167.2c2.8,0.7,4.5,3.5,3.8,6.3
	c0,0,0,0,0,0l-7.6,30.9c-2.2-1-4.6-1.5-7.1-1.5H442c-4.2-3.1-6.1-8.1-5.2-13.8l0-0.2c1.6-9.5-4.3-18.7-13.7-21.1L131.3,96.2
	c-9.4-2.2-18.9,3.1-21.9,12.3l-0.1,0.2c-2.3,6.6-8.9,10.7-15.9,9.9l-0.2,0c-9.4-1.4-18.4,4.5-20.6,13.8l-17.4,70.9
	c-8.2,1.7-14,8.9-14,17.3v73.7L26,290.6C23.2,289.9,21.5,287.1,22.2,284.3C22.2,284.3,22.2,284.3,22.2,284.3L22.2,284.3z"/>
</svg>
