<?xml version="1.0" encoding="utf-8"?>
<!-- Generator: Adobe Illustrator 25.0.0, SVG Export Plug-In . SVG Version: 6.00 Build 0)  -->
<svg version="1.1" id="Capa_1" xmlns="http://www.w3.org/2000/svg" xmlns:xlink="http://www.w3.org/1999/xlink" x="0px" y="0px"
	 viewBox="0 0 512 512" style="enable-background:new 0 0 512 512;" xml:space="preserve">
<style type="text/css">
	.st0{fill:#1C3661;}
</style>
<g>
	<g>
		<path class="st0" d="M261.5,93.2c-1.5-23.6-20.4-42.6-44-44.2c-4.3-13.7-17.1-23.7-32.1-23.7c-4.4,0-8.7,0.8-12.7,2.5
			C161.8,10.8,142.8,0,122.2,0C92.6,0,68,21.4,63.3,49.8c-1.7-0.1-3.4,0-5.1,0.1c-23.3,1.6-42.1,20.3-43.7,43.6
			c-0.1,1.5-0.1,3.1-0.1,4.6c0.7,25.6,21.4,45.6,47,45.6h152.7c0,0,0,0,0,0c25.6,0,46.4-20,47.4-45.5
			C261.6,96.6,261.6,94.9,261.5,93.2z M241.6,97.4c-0.6,14.8-12.6,26.3-27.4,26.3H61.4c-14.7,0-26.6-11.5-27-26.2
			c0-0.9,0-1.8,0.1-2.7c0.9-13.4,11.7-24.1,25.1-25c0.6,0,1.2-0.1,1.8-0.1c1.7,0,3.3,0.2,5,0.5c0.3,0.1,0.7,0.1,1,0.1
			c2.1,0.2,6.5,0.2,10.2-2.8c2.7-2.1,4.4-5.3,4.8-8.9c0-0.2,0-0.3,0-0.5c0-0.1,0-0.2,0-0.2c0.9-21.3,18.4-38,39.7-38
			c16.4,0,31.3,10.3,37.2,25.7c1.2,3.2,3.9,5.5,7.2,6.2c3.3,0.7,6.7-0.3,9.2-2.7c2.6-2.5,6-3.9,9.6-3.9c7.5,0,13.6,6.1,13.6,13.5
			c0,0.1,0,0.2,0,0.3c0,2.9,1.2,5.7,3.4,7.6c2.2,1.9,5.1,2.8,8,2.4c1.8-0.3,3.7-0.3,5.5-0.2c13.7,0.8,24.8,11.8,25.6,25.6v0
			C241.6,95.5,241.6,96.5,241.6,97.4z"/>
	</g>
</g>
<g>
	<g>
		<path class="st0" d="M206.3,335.9c-0.1-0.6-0.3-1.3-0.6-1.9s-0.6-1.2-0.9-1.7c-0.4-0.5-0.8-1.1-1.2-1.5s-1-0.9-1.5-1.2
			c-0.5-0.4-1.1-0.7-1.7-0.9c-0.6-0.2-1.2-0.4-1.9-0.6c-1.3-0.3-2.6-0.3-3.9,0c-0.6,0.1-1.3,0.3-1.9,0.6s-1.2,0.6-1.7,0.9
			c-0.5,0.4-1.1,0.8-1.5,1.2s-0.9,1-1.2,1.5c-0.4,0.5-0.7,1.1-0.9,1.7s-0.4,1.2-0.6,1.9c-0.1,0.6-0.2,1.3-0.2,2
			c0,2.6,1.1,5.2,2.9,7.1c0.5,0.5,1,0.9,1.5,1.2c0.5,0.4,1.1,0.7,1.7,0.9c0.6,0.2,1.2,0.4,1.9,0.6c0.6,0.1,1.3,0.2,1.9,0.2
			c0.7,0,1.3-0.1,2-0.2c0.6-0.1,1.3-0.3,1.9-0.6c0.6-0.2,1.2-0.6,1.7-0.9c0.5-0.4,1.1-0.8,1.5-1.2s0.9-1,1.2-1.5
			c0.4-0.5,0.7-1.1,0.9-1.7c0.2-0.6,0.4-1.2,0.6-1.9c0.1-0.6,0.2-1.3,0.2-2C206.5,337.2,206.5,336.5,206.3,335.9z"/>
	</g>
</g>
<g>
	<g>
		<path class="st0" d="M68.6,335.9c-0.1-0.6-0.3-1.3-0.6-1.9s-0.6-1.2-0.9-1.7c-0.4-0.5-0.8-1.1-1.2-1.5s-1-0.9-1.5-1.2
			c-0.5-0.4-1.1-0.7-1.7-0.9c-0.6-0.2-1.2-0.4-1.9-0.6c-1.3-0.3-2.6-0.3-3.9,0c-0.6,0.1-1.3,0.3-1.9,0.6c-0.6,0.2-1.2,0.6-1.7,0.9
			c-0.5,0.4-1.1,0.8-1.5,1.2s-0.9,1-1.2,1.5c-0.4,0.5-0.7,1.1-0.9,1.7s-0.4,1.2-0.6,1.9c-0.1,0.6-0.2,1.3-0.2,2c0,0.7,0.1,1.3,0.2,2
			c0.1,0.6,0.3,1.3,0.6,1.9c0.2,0.6,0.6,1.2,0.9,1.7c0.4,0.5,0.8,1.1,1.2,1.5s1,0.9,1.5,1.2c0.5,0.4,1.1,0.7,1.7,0.9
			c0.6,0.2,1.2,0.4,1.9,0.6c0.6,0.1,1.3,0.2,2,0.2c0.7,0,1.3-0.1,2-0.2c0.6-0.1,1.3-0.3,1.9-0.6c0.6-0.2,1.2-0.6,1.7-0.9
			c0.6-0.4,1.1-0.8,1.5-1.2c1.9-1.9,2.9-4.4,2.9-7.1C68.8,337.2,68.7,336.5,68.6,335.9z"/>
	</g>
</g>
<g>
	<g>
		<path class="st0" d="M494.3,405.8c-0.9-3.8-4-6.7-7.8-7.5c-1.3-0.3-20.1-3.8-41-1.3v-27.6c0-5.5-4.5-10-10-10c-1.6,0-3.3,0-5.2,0
			c-5-8.5-10.9-15.8-16.2-21.5v-70c46-12.2,80-54.3,80-104.1c0-29.2-11.9-57.1-32.7-77.3c0.4-3.3,0.7-6.7,0.7-10.1
			c0-41.7-33.9-75.6-75.6-75.6c-41.7,0-75.6,33.9-75.6,75.6c0,3.4,0.2,6.8,0.7,10.1c-20.9,20.2-32.7,48.1-32.7,77.3
			c0,49.8,34,91.8,80,104v29.2L340.4,283c-3.6-2.8-8.6-2.8-12.2,0l-28.2,21.9L271.5,283c-3.6-2.8-8.6-2.8-12.2,0L231,304.9
			L202.6,283c-3.6-2.8-8.6-2.8-12.2,0l-28.3,21.9L133.8,283c-3.6-2.8-8.6-2.8-12.2,0l-28.3,21.9L64.9,283c-3.6-2.8-8.6-2.8-12.2,0
			l-34.4,26.6c-2.5,1.9-3.9,4.8-3.9,7.9V502c0,5.5,4.5,10,10,10h344.4c1.3,0,2.5-0.2,3.6-0.7c11.3-0.4,19.4-2,20.3-2.1
			c0.4-0.1,0.8-0.2,1.2-0.3c0.4,0.1,0.8,0.2,1.2,0.3c1,0.2,11.6,2.2,25.6,2.2c18.7,0,43.5-3.6,59.3-20.1v0
			C507.5,462.5,494.8,408.1,494.3,405.8z M68.8,492V377.8c0-5.5-4.5-10-10-10s-10,4.5-10,10V492H34.3V322.4l24.4-18.9l24.4,18.9V492
			H68.8z M103.2,492V322.4l24.4-18.9l24.4,18.9V492H103.2z M221,492h-14.4V377.8c0-5.5-4.5-10-10-10s-10,4.5-10,10V492h-14.4V322.4
			l24.4-18.9l24.4,18.9V492z M241,492V322.4l24.4-18.9l24.5,18.9V492H241z M298.8,163.9c0-25.3,11-49.4,30.1-66.1
			c2.7-2.4,4-6.1,3.2-9.6c-0.8-3.8-1.2-7.8-1.2-11.7c0-30.7,24.9-55.6,55.6-55.6c30.7,0,55.6,24.9,55.6,55.6c0,3.9-0.4,7.9-1.2,11.7
			c-0.8,3.6,0.5,7.2,3.2,9.6c19.1,16.7,30.1,40.8,30.1,66.1c0,45-34,82.1-77.7,87.1v-50.4c0,0,0.1-0.1,0.1-0.1l38.1-35.1
			c4.1-3.7,4.3-10.1,0.6-14.1c-3.7-4.1-10.1-4.3-14.1-0.6l-24.7,22.8v-26.1l26.9-25c4-3.8,4.3-10.1,0.5-14.1
			c-3.8-4.1-10.1-4.3-14.1-0.5L396.4,120V97.5c0-5.5-4.5-10-10-10s-10,4.5-10,10v75.8l-24.7-22.8c-4.1-3.7-10.4-3.5-14.1,0.6
			c-3.7,4.1-3.5,10.4,0.6,14.1l38.1,35.1c0,0,0.1,0.1,0.1,0.1V251C332.8,246,298.8,208.8,298.8,163.9z M393.8,345.8
			c4,3.8,9.3,9.4,14.3,16.3c-5.2,1.5-10.2,3.8-14.3,7.3c-4.1-3.5-9.1-5.8-14.3-7.3C384.5,355.3,389.8,349.6,393.8,345.8z
			 M378.7,332.6v-61.3c2.5,0.2,5.1,0.3,7.7,0.3c2.6,0,5.1-0.1,7.7-0.3v51.3c-2.3-0.1-4.5,0.6-6.4,2.1
			C387.3,324.9,383.7,327.7,378.7,332.6z M310,322.4l24.4-18.8l24.4,18.9v34.7c-0.5,0.7-0.9,1.5-1.4,2.3c-1.9,0-3.6,0-5.2,0
			c-2.7,0-5.2,1.1-7.1,2.9c-1.9,1.9-2.9,4.4-2.9,7.1l0,27.6c-12.7-1.5-24.5-0.8-32.2,0V322.4z M382.2,490.6c-3.7,0.4-8,0.8-12.8,0.9
			c-0.2,0-0.5,0-0.7,0c-0.3,0-0.6,0-0.9,0c-15.7,0.1-34.8-2.8-45.6-14v0c-14.4-15-13.2-44.5-10.6-60.5c16.1-1.9,45.6-1.9,60,13.1
			C386,445,384.8,474.6,382.2,490.6z M393.8,426.7c-2.2-3.7-4.7-7.3-7.8-10.5c-6.7-7-15-11.7-23.8-14.7l0-21.8
			c19.9,1.2,21.6,6.4,21.6,14.4c0.1,5.5,4.5,9.9,10,9.9s9.9-4.4,10-9.9c0.1-7.9,1.7-13.2,21.6-14.4v21.8
			c-8.8,3.1-17.1,7.8-23.8,14.8C398.5,419.4,396,422.9,393.8,426.7z M465.4,477.4c-14.4,15-44,15-60.1,13.1
			c-0.9-5.3-1.6-12.2-1.6-19.5c0-0.3,0-0.6,0-0.8c0.1-14.4,2.8-30.4,12.3-40.2c14.4-15,44-15,60.1-13.1
			C478.7,432.9,479.9,462.4,465.4,477.4z"/>
	</g>
</g>
</svg>
