<?xml version="1.0" encoding="utf-8"?>
<!-- Generator: Adobe Illustrator 25.0.0, SVG Export Plug-In . SVG Version: 6.00 Build 0)  -->
<svg version="1.1" id="Capa_1" xmlns="http://www.w3.org/2000/svg" xmlns:xlink="http://www.w3.org/1999/xlink" x="0px" y="0px"
	 viewBox="0 0 512 512" style="enable-background:new 0 0 512 512;" xml:space="preserve">
<style type="text/css">
	.st0{fill:#1C3661;}
</style>
<g>
	<g>
		<path class="st0" d="M503.3,44.9c4.8,0,8.7-3.9,8.7-8.7V8.7c0-4.8-3.9-8.7-8.7-8.7H108.6c-4.8,0-8.7,3.9-8.7,8.7v394.6
			c0,4.8,3.9,8.7,8.7,8.7h394.6c4.8,0,8.7-3.9,8.7-8.7V65.2c0-4.8-3.9-8.7-8.7-8.7c-4.8,0-8.7,3.9-8.7,8.7v149.4h-34.6
			c-4.8,0-8.7,3.9-8.7,8.7s3.9,8.7,8.7,8.7h34.6v162.5H245.4v-42.2c0-4.8-3.9-8.7-8.7-8.7s-8.7,3.9-8.7,8.7v42.2H117.4V17.4H228
			v272.2c0,4.8,3.9,8.7,8.7,8.7s8.7-3.9,8.7-8.7v-57.6h155.2c4.8,0,8.7-3.9,8.7-8.7s-3.9-8.7-8.7-8.7H245.4V17.4h249.2v18.7
			C494.6,41,498.5,44.9,503.3,44.9z"/>
	</g>
</g>
<g>
	<g>
		<path class="st0" d="M73.7,50.3L44.9,4.1C43.3,1.6,40.5,0,37.5,0c-3,0-5.8,1.6-7.4,4.1L1.3,50.3c-1.7,2.7-1.8,6.1-0.2,8.8
			s4.5,4.5,7.6,4.5h20.1v36.5c0,4.8,3.9,8.7,8.7,8.7s8.7-3.9,8.7-8.7V63.7h20.1c3.2,0,6.1-1.7,7.6-4.5S75.4,53,73.7,50.3z
			 M24.4,46.2l13.1-21l13.1,21H24.4z"/>
	</g>
</g>
<g>
	<g>
		<path class="st0" d="M73.9,352.9c-1.5-2.8-4.5-4.5-7.6-4.5H46.2v-225c0-4.8-3.9-8.7-8.7-8.7s-8.7,3.9-8.7,8.7v225H8.7
			c-3.2,0-6.1,1.7-7.6,4.5s-1.5,6.2,0.2,8.8L30.1,408c1.6,2.6,4.4,4.1,7.4,4.1c3,0,5.8-1.6,7.4-4.1l28.8-46.2
			C75.4,359.1,75.4,355.7,73.9,352.9z M37.5,386.9l-13.1-21h26.1L37.5,386.9z"/>
	</g>
</g>
<g>
	<g>
		<path class="st0" d="M507.9,467.1l-46.2-28.8c-2.7-1.7-6.1-1.8-8.8-0.2c-2.8,1.5-4.5,4.5-4.5,7.6v20.1H163.6v-20.1
			c0-3.2-1.7-6.1-4.5-7.6c-2.8-1.5-6.2-1.5-8.8,0.2L104,467.1c-2.6,1.6-4.1,4.4-4.1,7.4s1.6,5.8,4.1,7.4l46.2,28.8
			c1.4,0.9,3,1.3,4.6,1.3c1.5,0,2.9-0.4,4.2-1.1c2.8-1.5,4.5-4.5,4.5-7.6v-20.1h284.8v20.1c0,3.2,1.7,6.1,4.5,7.6
			c1.3,0.7,2.8,1.1,4.2,1.1c1.6,0,3.2-0.4,4.6-1.3l46.2-28.8c2.6-1.6,4.1-4.4,4.1-7.4C512,471.5,510.4,468.7,507.9,467.1z
			 M146.1,487.6l-21-13.1l21-13.1V487.6z M465.8,487.6v-26.1l21,13.1L465.8,487.6z"/>
	</g>
</g>
</svg>
