<?xml version="1.0" encoding="utf-8"?>
<!-- Generator: Adobe Illustrator 25.0.0, SVG Export Plug-In . SVG Version: 6.00 Build 0)  -->
<svg version="1.1" id="Calque_1" xmlns="http://www.w3.org/2000/svg" xmlns:xlink="http://www.w3.org/1999/xlink" x="0px" y="0px"
	 viewBox="0 0 394 394" style="enable-background:new 0 0 394 394;" xml:space="preserve">
<style type="text/css">
	.st0{fill:#1C3661;}
</style>
<path class="st0" d="M195.7,15c32,0,64,9.1,92.6,26.2c20.1,12.1,37.8,27.5,52.5,45.8l-53.7-1.8l-0.5,14l67.8,2.2
	c3.9,0.1,7.1-2.9,7.2-6.8c0-0.2,0-0.3,0-0.5l-2.2-67.8l-14,0.5l1.5,45.7c-14.8-17.1-32.2-31.7-51.5-43.4C264.8,10.8,230.3,1,195.7,1
	c-55.1,0-106,22.7-143.1,64C19.7,101.6,0,150.9,0,196.7h14c0-42.5,18.3-88.3,49-122.4C97.5,36.1,144.6,15,195.7,15z"/>
<path class="st0" d="M331,319.1c-34.5,38.3-81.6,59.4-132.7,59.4c-32,0-64-9.1-92.6-26.2c-20.1-12.1-37.8-27.6-52.5-45.8l53.7,1.8
	l0.5-14L39.4,292c-1.9-0.1-3.8,0.7-5.2,2c-1.4,1.4-2.1,3.2-2,5.2l2.2,67.8l14-0.5l-1.5-45.7c14.8,17.1,32.2,31.7,51.5,43.4
	c30.8,18.5,65.3,28.2,99.8,28.2c55.1,0,106-22.7,143.1-64c32.9-36.6,52.6-85.8,52.6-131.7h-14C380,239.3,361.7,285,331,319.1z"/>
</svg>
