<?xml version="1.0" encoding="utf-8"?>
<!-- Generator: Adobe Illustrator 25.0.0, SVG Export Plug-In . SVG Version: 6.00 Build 0)  -->
<svg version="1.1" id="Calque_1" xmlns="http://www.w3.org/2000/svg" xmlns:xlink="http://www.w3.org/1999/xlink" x="0px" y="0px"
	 viewBox="0 0 512 512" style="enable-background:new 0 0 512 512;" xml:space="preserve">
<style type="text/css">
	.st0{fill:#1C3661;}
</style>
<g id="real_estate">
	<path class="st0" d="M485.7,295.2c-2.9-2.4-6.2-4.1-9.8-5.2l19.2-38.4c2-3.9,0.4-8.8-3.5-10.7c-1.1-0.6-2.4-0.9-3.6-0.9h-80V88
		c0-4.4-3.6-8-8-8H248V24c0-4.4-3.6-8-8-8H112c-4.4,0-8,3.6-8,8v216H24c-4.4,0-8,3.6-8,8c0,1.2,0.3,2.5,0.8,3.6L43.1,304H24
		c-4.4,0-8,3.6-8,8v160c0,3.2,1.9,6.2,4.9,7.4c1,0.4,2,0.6,3.1,0.6c2.1,0,4.2-0.8,5.7-2.3l39.3-39.3c7.8,10.5,22.7,12.8,33.3,4.9
		c3-2.2,5.4-5.1,7.1-8.4l143.6,60.5c2.5,1.1,5.4,0.8,7.6-0.8l223-153.8c13-9,16.4-26.8,7.4-39.8
		C489.5,298.8,487.7,296.9,485.7,295.2L485.7,295.2z M392,96v144H248V96H392z M120,32h112v208H120V32z M36.9,256h438.1l-17.3,34.7
		c-4.4,1.8-13.2,5.5-31.4,13.3H238l-58.2-31.1c-2.2-1.2-4.8-1.3-7-0.2l-63.6,28.3c-6-11.7-20.4-16.3-32.1-10.3
		c-5.4,2.8-9.6,7.6-11.6,13.4h-4.5L36.9,256z M299.8,336.9L268,320h121.3c-21.4,9.3-49.2,21.4-85.3,37.1V344
		C304,341,302.4,338.3,299.8,336.9z M32,320h32v100.7l-32,32V320z M96,424c0,4.4-3.6,8-8,8s-8-3.6-8-8V312c0-4.4,3.6-8,8-8
		s8,3.6,8,8V424z M474.5,327.6L255.1,478.9L112,418.7V317.2l63.7-28.3L288,348.8V360c0,4.4-3.6,8-8,8H176v16h104
		c5.6,0,11.1-2.1,15.4-5.7c65.7-28.6,164.1-71.4,170.6-73.7c3.5-0.4,6.9,0.7,9.6,2.9c2.9,2.4,4.5,6,4.5,9.7
		C480,321.3,477.9,325.2,474.5,327.6L474.5,327.6z"/>
	<path class="st0" d="M360,112h16v16h-16V112z"/>
	<path class="st0" d="M360,144h16v16h-16V144z"/>
	<path class="st0" d="M360,176h16v16h-16V176z"/>
	<path class="st0" d="M360,208h16v16h-16V208z"/>
	<path class="st0" d="M328,112h16v16h-16V112z"/>
	<path class="st0" d="M296,112h16v16h-16V112z"/>
	<path class="st0" d="M264,112h16v16h-16V112z"/>
	<path class="st0" d="M328,144h16v16h-16V144z"/>
	<path class="st0" d="M296,144h16v16h-16V144z"/>
	<path class="st0" d="M264,144h16v16h-16V144z"/>
	<path class="st0" d="M328,176h16v16h-16V176z"/>
	<path class="st0" d="M296,176h16v16h-16V176z"/>
	<path class="st0" d="M264,176h16v16h-16V176z"/>
	<path class="st0" d="M328,208h16v16h-16V208z"/>
	<path class="st0" d="M296,208h16v16h-16V208z"/>
	<path class="st0" d="M264,208h16v16h-16V208z"/>
	<path class="st0" d="M200,112h16v16h-16V112z"/>
	<path class="st0" d="M168,112h16v16h-16V112z"/>
	<path class="st0" d="M136,112h16v16h-16V112z"/>
	<path class="st0" d="M200,80h16v16h-16V80z"/>
	<path class="st0" d="M168,80h16v16h-16V80z"/>
	<path class="st0" d="M136,80h16v16h-16V80z"/>
	<path class="st0" d="M200,48h16v16h-16V48z"/>
	<path class="st0" d="M168,48h16v16h-16V48z"/>
	<path class="st0" d="M136,48h16v16h-16V48z"/>
	<path class="st0" d="M200,144h16v16h-16V144z"/>
	<path class="st0" d="M168,144h16v16h-16V144z"/>
	<path class="st0" d="M136,144h16v16h-16V144z"/>
	<path class="st0" d="M200,176h16v16h-16V176z"/>
	<path class="st0" d="M168,176h16v16h-16V176z"/>
	<path class="st0" d="M136,176h16v16h-16V176z"/>
	<path class="st0" d="M200,208h16v16h-16V208z"/>
	<path class="st0" d="M168,208h16v16h-16V208z"/>
	<path class="st0" d="M136,208h16v16h-16V208z"/>
</g>
</svg>
