<?xml version="1.0" encoding="utf-8"?>
<!-- Generator: Adobe Illustrator 25.0.0, SVG Export Plug-In . SVG Version: 6.00 Build 0)  -->
<svg version="1.1" id="Capa_1" xmlns="http://www.w3.org/2000/svg" xmlns:xlink="http://www.w3.org/1999/xlink" x="0px" y="0px"
	 viewBox="0 0 496 496" style="enable-background:new 0 0 496 496;" xml:space="preserve">
<style type="text/css">
	.st0{fill:#1C3661;}
</style>
<g>
	<g>
		<g>
			<path class="st0" d="M440,102.3V96c0-52.9-43.1-96-96-96c-39.6,0-75,24.6-89.3,60.8l-2-0.4c-7-1.6-14.3,0.1-19.9,4.6
				c-5.6,4.5-8.8,11.2-8.8,18.4c0,10.3,6.5,19,16,22.3V136c0,40.8,25.7,75.7,61.7,89.6c-7,3.3-13.6,7.3-19.7,12.2L269.2,248h-55.9
				l-4.1-19c4.1-2.9,6.7-7.6,6.7-13h35.1l-3.9-11.8c-5-15-17.9-25.5-33.1-27.8c-2.7-5-7.9-8.5-14-8.5h-32c-5.9,0-11,3.2-13.8,8H136
				c-8.8,0-16,7.2-16,16v16c0,8.8,7.2,16,16,16h18.2c1.7,2.8,4.1,5.1,7.2,6.5l7,28c-5.2,5.7-8.4,13.2-8.4,21.4
				c0,13.9,8.9,25.6,21.3,30l8.4,33.7c1.3,5.1,4.3,9.3,8.3,12.2c-3.9,7.4-6,15.6-6,24.1v70.2l-9,3c-9,3-15,11.4-15,20.8
				c0,12.1,9.8,21.9,21.9,21.9H288v-0.3c2.5-0.2,4.9-0.6,7.3-1.2l93.1-21.5l8.3,12.4c4.4,6.6,11.7,10.5,19.7,10.5
				c13,0,23.6-10.6,23.6-23.6V424c0-13.2-10.8-24-24-24h-24.2c5.1-6.7,8.2-15,8.2-24V248h-0.1c-0.4-12.2-7.4-22.6-17.6-28
				c26.2-14.5,44.9-41,48.8-72c0.4,0,0.8,0.1,1.3,0.1c5.3,0,10.5-1.8,14.7-5.2c5.6-4.5,8.8-11.2,8.8-18.4
				C456,114.3,449.5,105.5,440,102.3z M216,193.4c4,1.3,7.6,3.5,10.5,6.6H216V193.4z M152,208h-16v-16h16V208z M400,416h16
				c4.4,0,8,3.6,8,8v48.4c0,4.2-3.4,7.6-7.6,7.6c-2.6,0-4.9-1.3-6.4-3.4l-10-15V416z M344,16c44.1,0,80,35.9,80,80v2.5L270.6,64.4
				C283,35.5,311.9,16,344,16z M256,136v-26.5l64,14.2V152h16c4.4,0,8,3.6,8,8s-3.6,8-8,8h-16v46.4C283.5,207,256,174.6,256,136z
				 M317.1,236.5l-20,10C303.3,242.3,310,238.9,317.1,236.5z M168,216v-32h32l0,32H168z M197,248h-5c-3.3,0-6.4,0.6-9.4,1.6
				l-4.4-17.6h15.3L197,248z M192,296c-8.8,0-16-7.2-16-16s7.2-16,16-16h99.1l16,32H192z M224.9,448H208v-68
				c0-7.3,2.2-14.4,6.4-20.4c7.2-1.3,13.2-6.2,16-12.8c10.9-4.4,23.8-3.2,33.7,3.4v7.5l-31.2,50c-5.7,9.2-8.8,19.8-8.8,30.6
				C224,441.6,224.3,444.8,224.9,448z M205.2,339.8l-7-27.8h12.4l5.2,24.3c0.1,0.4,0.1,0.8,0.1,1.1v1.1c0,3-2.5,5.5-5.5,5.5
				C208,344,205.8,342.3,205.2,339.8z M230.9,329.9L227,312h37v20.1C253.6,327.9,241.8,327.2,230.9,329.9z M189.9,480
				c-3.3,0-5.9-2.7-5.9-5.9c0-2.6,1.6-4.8,4.1-5.6l13.2-4.4h28.8c3,6,7,11.4,11.9,16H189.9z M384,376c0,13.2-10.8,24-24,24h-32h-32
				v16h32h32h24v41.6l-92.3,21.3c-3.1,0.7-6.2,1.1-10,1.1c-23,0-41.7-18.7-41.7-41.7c0-7.8,2.2-15.5,6.3-22.1l30.1-48.1H384V376z
				 M384,352H280v-40h42.1l60.9-33.8c0.4-0.2,0.7-0.5,1.1-0.7L384,352L384,352z M384,249.2c0,6.2-3.4,12-8.8,15l-51.7,28.7
				l-16.7-33.4l51.5-25.8c2.4-1.2,5-1.8,7.7-1.8h0.9C376.3,232,384,239.7,384,249.2z M437.2,130.5c-1.8,1.4-4.2,2-6.4,1.5l-28.1-6.2
				l-3.5,15.6l16.3,3.6c-4.5,39.9-38.4,71-79.5,71v-32c13.2,0,24-10.8,24-24s-10.8-24-24-24v-8.7l46.2,10.3l3.5-15.6L246,90.9
				c-3.5-0.8-6-3.8-6-7.4c0-2.3,1-4.5,2.8-5.9c1.8-1.4,4.2-2,6.4-1.5L434,117.1c3.5,0.8,6,3.8,6,7.4C440,126.9,439,129,437.2,130.5z
				"/>
			<path class="st0" d="M128,249.9l-15.8-22.9l-27.8-2.1L96.5,200l-12.1-24.9l27.8-2.1l15.8-22.9l13.6,19.8l13.2-9.1L136,133.5V0H40
				v496h96V266.5l18.8-27.3l-13.2-9.1L128,249.9z M120,480H56V16h64v117.5l-16.6,24.2l-43.7,3.2l19,39.1l-19,39.1l43.7,3.2
				l16.6,24.2V480z"/>
			<rect x="272" y="128" class="st0" width="16" height="16"/>
			<rect x="72" y="32" class="st0" width="16" height="64"/>
			<rect x="72" y="112" class="st0" width="16" height="16"/>
			<rect x="88" y="272" class="st0" width="16" height="64"/>
			<rect x="72" y="416" class="st0" width="16" height="48"/>
		</g>
	</g>
</g>
</svg>
